<svg width="68" height="66" viewBox="0 0 68 66" fill="none" xmlns="http://www.w3.org/2000/svg">
<path d="M42.0362 46.4076H55.9367L52.0308 42.6133C50.9716 41.5844 50.3765 40.1888 50.3765 38.7336V30.2037C50.3765 23.1485 45.7348 17.1464 39.2561 14.9219V13.9999C39.2561 11.0169 36.7667 8.59863 33.6959 8.59863C30.6251 8.59863 28.1357 11.0169 28.1357 13.9999V14.9219C21.657 17.1464 17.0153 23.1485 17.0153 30.2037V38.7336C17.0153 40.1888 16.4202 41.5844 15.3609 42.6133L11.4551 46.4076H25.3556M42.0362 46.4076V49.1082C42.0362 53.5827 38.3021 57.2101 33.6959 57.2101C29.0897 57.2101 25.3556 53.5827 25.3556 49.1082V46.4076M42.0362 46.4076H25.3556" stroke="#24B300" stroke-width="2" stroke-linecap="round" stroke-linejoin="round"/>
</svg>
