<svg width="56" height="55" viewBox="0 0 56 55" fill="none" xmlns="http://www.w3.org/2000/svg">
<path fill-rule="evenodd" clip-rule="evenodd" d="M32.1154 9.06048C31.0616 4.8441 24.8887 4.8441 23.835 9.06048C23.1543 11.7842 19.9419 13.0768 17.478 11.6184C13.6637 9.36074 9.29881 13.6009 11.6229 17.3061C13.1242 19.6997 11.7936 22.8202 8.98971 23.4814C4.64926 24.505 4.64926 30.5015 8.98971 31.5251C11.7936 32.1864 13.1242 35.3069 11.6229 37.7004C9.29881 41.4057 13.6637 45.6458 17.478 43.3882C19.9419 41.9298 23.1543 43.2224 23.835 45.9461C24.8887 50.1625 31.0616 50.1625 32.1154 45.9461C32.7961 43.2224 36.0084 41.9298 38.4724 43.3882C42.2866 45.6458 46.6515 41.4057 44.3275 37.7004C42.8262 35.3069 44.1568 32.1864 46.9606 31.5251C51.3011 30.5015 51.3011 24.505 46.9606 23.4814C44.1568 22.8202 42.8262 19.6997 44.3275 17.3061C46.6515 13.6009 42.2866 9.36075 38.4724 11.6184C36.0084 13.0768 32.7961 11.7842 32.1154 9.06048ZM27.9752 35.6052C32.5814 35.6052 36.3155 31.9778 36.3155 27.5033C36.3155 23.0287 32.5814 19.4014 27.9752 19.4014C23.369 19.4014 19.6349 23.0287 19.6349 27.5033C19.6349 31.9778 23.369 35.6052 27.9752 35.6052Z" fill="#B2B2B2"/>
</svg>
