<svg width="68" height="65" viewBox="0 0 68 65" fill="none" xmlns="http://www.w3.org/2000/svg">
<path d="M33.6955 13.675L33.6955 13.702M33.6955 32.5795L33.6955 32.6065M33.6955 51.4839L33.6955 51.5109M33.6955 16.3756C32.1601 16.3756 30.9154 15.1665 30.9154 13.675C30.9154 12.1835 32.1601 10.9744 33.6955 10.9744C35.2309 10.9744 36.4756 12.1835 36.4756 13.675C36.4756 15.1665 35.2309 16.3756 33.6955 16.3756ZM33.6955 35.2801C32.1601 35.2801 30.9154 34.071 30.9154 32.5795C30.9154 31.0879 32.1601 29.8788 33.6955 29.8788C35.2309 29.8788 36.4756 31.0879 36.4756 32.5795C36.4756 34.071 35.2309 35.2801 33.6955 35.2801ZM33.6955 54.1846C32.1601 54.1846 30.9154 52.9754 30.9154 51.4839C30.9154 49.9924 32.1601 48.7833 33.6955 48.7833C35.2309 48.7833 36.4756 49.9924 36.4756 51.4839C36.4756 52.9754 35.2309 54.1846 33.6955 54.1846Z" stroke="#111827" stroke-width="2" stroke-linecap="round" stroke-linejoin="round"/>
</svg>
