<svg width="68" height="66" viewBox="0 0 68 66" fill="none" xmlns="http://www.w3.org/2000/svg">
<path d="M9.11963 32.9044L14.6798 27.5031M14.6798 27.5031L34.1405 8.59863L53.6012 27.5031M14.6798 27.5031V54.5095C14.6798 56.001 15.9245 57.2101 17.4599 57.2101H25.8002M53.6012 27.5031L59.1614 32.9044M53.6012 27.5031V54.5095C53.6012 56.001 52.3565 57.2101 50.8211 57.2101H42.4808M25.8002 57.2101C27.3356 57.2101 28.5803 56.001 28.5803 54.5095V43.7069C28.5803 42.2154 29.825 41.0063 31.3604 41.0063H36.9206C38.456 41.0063 39.7007 42.2154 39.7007 43.7069V54.5095C39.7007 56.001 40.9454 57.2101 42.4808 57.2101M25.8002 57.2101H42.4808" stroke="#111827" stroke-width="2" stroke-linecap="round" stroke-linejoin="round"/>
</svg>
