<svg width="57" height="55" viewBox="0 0 57 55" fill="none" xmlns="http://www.w3.org/2000/svg">
<path fill-rule="evenodd" clip-rule="evenodd" d="M8.84473 13.8916C8.84473 12.4 10.0894 11.1909 11.6248 11.1909H44.986C46.5214 11.1909 47.7661 12.4 47.7661 13.8916C47.7661 15.3831 46.5214 16.5922 44.986 16.5922H11.6248C10.0894 16.5922 8.84473 15.3831 8.84473 13.8916Z" fill="#111827"/>
<path fill-rule="evenodd" clip-rule="evenodd" d="M8.84473 27.3947C8.84473 25.9032 10.0894 24.6941 11.6248 24.6941H44.986C46.5214 24.6941 47.7661 25.9032 47.7661 27.3947C47.7661 28.8863 46.5214 30.0954 44.986 30.0954H11.6248C10.0894 30.0954 8.84473 28.8863 8.84473 27.3947Z" fill="#111827"/>
<path fill-rule="evenodd" clip-rule="evenodd" d="M8.84473 40.8979C8.84473 39.4064 10.0894 38.1973 11.6248 38.1973H44.986C46.5214 38.1973 47.7661 39.4064 47.7661 40.8979C47.7661 42.3894 46.5214 43.5986 44.986 43.5986H11.6248C10.0894 43.5986 8.84473 42.3894 8.84473 40.8979Z" fill="#111827"/>
</svg>
