<svg width="68" height="66" viewBox="0 0 68 66" fill="none" xmlns="http://www.w3.org/2000/svg">
<g clip-path="url(#clip0_3_382)">
<path d="M33.3025 3.42061C33.607 2.51026 34.8947 2.51026 35.1992 3.42061L41.5132 22.2952C41.6496 22.703 42.0315 22.9779 42.4615 22.978L62.8285 22.9787C63.8042 22.9787 64.2023 24.2331 63.4052 24.7957L46.9787 36.39C46.618 36.6446 46.467 37.1055 46.607 37.5242L52.8925 56.3184C53.1989 57.2346 52.1568 58.0096 51.3675 57.4526L34.8274 45.78C34.4818 45.536 34.0199 45.536 33.6743 45.78L17.1342 57.4526C16.3449 58.0097 15.3028 57.2346 15.6092 56.3184L21.8947 37.5242C22.0347 37.1055 21.8837 36.6446 21.523 36.39L5.09655 24.7957C4.29942 24.2331 4.69747 22.9787 5.67317 22.9787L26.0402 22.978C26.4702 22.9779 26.8521 22.703 26.9885 22.2952L33.3025 3.42061Z" stroke="#24B300" stroke-width="2"/>
</g>
<defs>
<clipPath id="clip0_3_382">
<rect width="66.7224" height="64.8153" fill="white" transform="translate(0.889648 0.585693)"/>
</clipPath>
</defs>
</svg>
